<?xml version="1.0" encoding="iso-8859-1"?>
<!-- Uploaded to: SVG Repo, www.svgrepo.com, Generator: SVG Repo Mixer Tools -->
<svg fill="#000000" height="800px" width="800px" version="1.1" id="Layer_1" xmlns="http://www.w3.org/2000/svg" xmlns:xlink="http://www.w3.org/1999/xlink" 
	 viewBox="0 0 471.014 471.014" xml:space="preserve">
<g>
	<g>
		<path d="M453.463,164.29c11.317-11.316,17.55-26.384,17.551-42.426c0-16.042-6.232-31.11-17.549-42.426
			c-23.396-23.394-61.46-23.393-84.854,0l-16.399,16.399l-5.303-5.303c-1.407-1.407-3.314-2.197-5.304-2.197
			s-3.896,0.79-5.304,2.197l-25.456,25.456l-1.767-1.767c-2.93-2.929-7.678-2.929-10.607,0c-2.929,2.929-2.929,7.678,0,10.606
			l1.768,1.768l-10.606,10.606l-1.767-1.767c-2.93-2.929-7.678-2.929-10.607,0c-2.929,2.929-2.929,7.678,0,10.606l1.768,1.768
			l-10.607,10.607l-1.768-1.768c-2.928-2.93-7.677-2.929-10.606,0s-2.929,7.678,0.001,10.606l1.768,1.768l-10.606,10.606
			l-1.768-1.768c-2.93-2.929-7.678-2.93-10.607,0c-2.929,2.929-2.929,7.678,0,10.606l1.768,1.768l-10.606,10.606l-1.768-1.768
			c-2.93-2.929-7.678-2.929-10.607,0s-2.929,7.678,0,10.606l1.768,1.768l-10.607,10.607l-1.768-1.768
			c-2.928-2.93-7.677-2.929-10.606,0c-2.929,2.929-2.929,7.678,0.001,10.606l1.768,1.768l-10.607,10.607l-1.768-1.768
			c-2.929-2.929-7.677-2.929-10.607,0c-2.929,2.929-2.929,7.678,0,10.606l1.768,1.768l-31.819,31.819l-1.767-1.767
			c-2.93-2.929-7.678-2.929-10.607,0c-2.929,2.929-2.929,7.678,0,10.606l1.768,1.768l-30.052,30.052
			c-2.929,2.929-2.929,7.678,0,10.606l1.768,1.768l-11.313,11.314c-7.41,7.408-19.464,7.408-26.87,0
			c-7.408-7.408-7.408-19.462,0-26.87l46.668-46.669l1.768,1.768c1.465,1.465,3.384,2.197,5.304,2.197
			c1.919,0,3.839-0.732,5.304-2.197c2.929-2.929,2.929-7.678,0-10.606l-47.376-47.376c-2.93-2.929-7.678-2.929-10.607,0
			s-2.929,7.678,0,10.606l1.767,1.767l-44.194,44.195C8.062,291.495,0,310.957,0,331.658s8.062,40.163,22.699,54.801
			c15.109,15.108,34.955,22.663,54.801,22.663c19.847,0,39.692-7.554,54.802-22.663l8.838-8.839l1.767,1.767
			c1.407,1.407,3.314,2.197,5.304,2.197s3.896-0.79,5.304-2.197l51.265-51.265l1.767,1.767c1.465,1.464,3.385,2.197,5.304,2.197
			s3.839-0.732,5.304-2.197c2.929-2.929,2.929-7.678,0-10.606l-1.768-1.768l10.606-10.606l1.767,1.767
			c1.465,1.465,3.384,2.197,5.304,2.197c1.919,0,3.839-0.732,5.304-2.197c2.929-2.929,2.929-7.678,0-10.606l-1.768-1.768
			l77.782-77.782l1.768,1.768c1.464,1.464,3.384,2.196,5.303,2.196s3.839-0.732,5.304-2.197c2.929-2.929,2.929-7.678-0.001-10.607
			l-1.767-1.767l10.607-10.607l1.767,1.767c1.465,1.465,3.384,2.197,5.304,2.197c1.919,0,3.839-0.732,5.303-2.196
			c2.93-2.929,2.93-7.678,0.001-10.606l-1.768-1.768l43.134-43.135c2.929-2.929,2.929-7.678,0-10.606l-26.516-26.516l16.399-16.399
			c17.545-17.545,46.094-17.545,63.639,0c8.484,8.483,13.156,19.784,13.156,31.819c0,12.036-4.673,23.336-13.157,31.82
			l-35.847,35.848c-4.248,4.25-6.588,9.899-6.588,15.905c0,3.413,0.772,6.702,2.202,9.692l-10.991,10.991
			c-4.038-6.082-6.211-13.214-6.211-20.681c0-10.018,3.901-19.435,10.985-26.517l35.843-35.845
			c5.66-5.659,8.777-13.193,8.777-21.213s-3.116-15.554-8.775-21.213c-11.696-11.696-30.729-11.696-42.427,0
			c-2.93,2.929-2.93,7.677-0.001,10.606c2.929,2.929,7.678,2.93,10.606,0c5.849-5.847,15.365-5.848,21.214,0
			c2.826,2.826,4.383,6.593,4.383,10.606s-1.557,7.78-4.384,10.606l-35.843,35.845c-9.917,9.915-15.379,23.099-15.379,37.124
			c0,14.023,5.461,27.207,15.376,37.123c0.27,0.27,0.56,0.506,0.858,0.727c0.031,0.022,0.056,0.051,0.086,0.073l24.749,17.678
			c1.313,0.938,2.839,1.397,4.357,1.397c1.933,0,3.854-0.745,5.306-2.197l14.142-14.142c2.592-2.592,2.931-6.679,0.799-9.663
			l-17.678-24.749c-0.02-0.028-0.047-0.051-0.067-0.079c-0.221-0.301-0.46-0.593-0.732-0.865c-1.418-1.419-2.196-3.301-2.196-5.304
			c0-2,0.78-3.883,2.196-5.299L453.463,164.29z M247.206,200.843l10.606,10.606l-10.606,10.606L236.6,211.449L247.206,200.843z
			 M225.993,222.056l10.607,10.607l-10.607,10.607l-10.607-10.606L225.993,222.056z M183.566,264.483l10.606,10.606l-15.908,15.908
			c-0.003,0.003-15.911,15.911-15.911,15.911l-10.606-10.606L183.566,264.483z M121.694,375.852
			c-12.186,12.186-28.187,18.278-44.194,18.276c-16.003-0.001-32.011-6.094-44.193-18.276C21.501,364.047,15,348.352,15,331.658
			c0-16.694,6.501-32.389,18.307-44.194L77.5,243.269l22.627,22.627l-46.667,46.67c-13.257,13.256-13.257,34.826-0.001,48.083
			c6.629,6.629,15.334,9.942,24.042,9.942c8.705,0,17.414-3.315,24.042-9.942l11.313-11.313l17.677,17.677L121.694,375.852z
			 M148.211,363.477l-30.046-30.046c-0.01-0.01-1.773-1.773-1.773-1.773l24.749-24.749l10.606,10.606l-8.839,8.839
			c-2.929,2.929-2.929,7.678,0,10.606c1.465,1.464,3.385,2.197,5.304,2.197s3.839-0.732,5.304-2.197l14.137-14.137
			c0.01-0.01,15.914-15.914,15.914-15.914l10.606,10.606L148.211,363.477z M204.78,306.908l-10.606-10.606l10.606-10.606
			l10.606,10.606L204.78,306.908z M204.78,264.482l-10.606-10.606l10.606-10.607l10.607,10.606L204.78,264.482z M373.429,138.267
			L225.993,285.696l-10.606-10.606l58.336-58.336c2.929-2.929,2.929-7.678,0-10.606l-15.91-15.91l10.607-10.607l15.911,15.91
			c1.464,1.465,3.384,2.197,5.303,2.197s3.839-0.732,5.304-2.197c2.929-2.929,2.929-7.678-0.001-10.606l-15.91-15.91l10.607-10.607
			l15.91,15.91c1.465,1.464,3.385,2.197,5.304,2.197c1.919,0,3.839-0.732,5.304-2.197c2.929-2.929,2.929-7.678,0-10.606
			l-15.91-15.91l10.606-10.606l15.91,15.91c1.465,1.464,3.385,2.197,5.304,2.197c1.919,0,3.839-0.732,5.304-2.197
			c2.929-2.929,2.929-7.678,0-10.606l-15.91-15.91l20.153-20.153l5.29,5.29C346.926,111.764,373.429,138.267,373.429,138.267z
			 M420.195,239.984l-5.155,5.156l-12.375-8.839l8.692-8.692L420.195,239.984z"/>
	</g>
</g>
</svg>