<?xml version="1.0" encoding="iso-8859-1"?>
<!-- Uploaded to: SVG Repo, www.svgrepo.com, Generator: SVG Repo Mixer Tools -->
<svg fill="#000000" height="800px" width="800px" version="1.1" id="Layer_1" xmlns="http://www.w3.org/2000/svg" xmlns:xlink="http://www.w3.org/1999/xlink" 
	 viewBox="0 0 470 470" xml:space="preserve">
<g>
	<g>
		<g>
			<path d="M462.5,107.5H7.5c-4.142,0-7.5,3.358-7.5,7.5v240c0,4.142,3.358,7.5,7.5,7.5h455c4.142,0,7.5-3.358,7.5-7.5V115
				C470,110.858,466.642,107.5,462.5,107.5z M136,347.5H90v-30h7.5c4.142,0,7.5-3.358,7.5-7.5v-67.5h16V310
				c0,4.142,3.358,7.5,7.5,7.5h7.5V347.5z M75,302.5v-60h15v60H75z M197,347.5h-46v-30h7.5c4.142,0,7.5-3.358,7.5-7.5v-67.5h31
				V347.5z M136,302.5v-60h15v60H136z M258,347.5h-46v-105h31V310c0,4.142,3.358,7.5,7.5,7.5h7.5V347.5z M319,347.5h-46v-30h7.5
				c4.142,0,7.5-3.358,7.5-7.5v-67.5h16V310c0,4.142,3.358,7.5,7.5,7.5h7.5V347.5z M258,302.5v-60h15v60H258z M380,347.5h-46v-30
				h7.5c4.142,0,7.5-3.358,7.5-7.5v-67.5h16V310c0,4.142,3.358,7.5,7.5,7.5h7.5V347.5z M319,302.5v-60h15v60H319z M455,347.5h-60
				v-30h7.5c4.142,0,7.5-3.358,7.5-7.5v-67.5h22.5c4.142,0,7.5-3.358,7.5-7.5c0-4.142-3.358-7.5-7.5-7.5h-395
				c-4.142,0-7.5,3.358-7.5,7.5c0,4.142,3.358,7.5,7.5,7.5H60V310c0,4.142,3.358,7.5,7.5,7.5H75v30H15v-225h440V347.5z M380,302.5
				v-60h15v60H380z"/>
			<path d="M177.5,182.5h105c4.142,0,7.5-3.358,7.5-7.5v-30c0-4.142-3.358-7.5-7.5-7.5h-105c-4.142,0-7.5,3.358-7.5,7.5v30
				C170,179.142,173.358,182.5,177.5,182.5z M185,152.5h90v15h-90V152.5z"/>
			<path d="M177.5,212.5h105c4.142,0,7.5-3.358,7.5-7.5c0-4.142-3.358-7.5-7.5-7.5h-105c-4.142,0-7.5,3.358-7.5,7.5
				C170,209.142,173.358,212.5,177.5,212.5z"/>
			<path d="M327.5,182.5c12.407,0,22.5-10.093,22.5-22.5s-10.093-22.5-22.5-22.5c-12.407,0-22.5,10.093-22.5,22.5
				S315.093,182.5,327.5,182.5z M327.5,152.5c4.136,0,7.5,3.364,7.5,7.5s-3.364,7.5-7.5,7.5s-7.5-3.364-7.5-7.5
				S323.364,152.5,327.5,152.5z"/>
			<path d="M387.5,182.5c12.407,0,22.5-10.093,22.5-22.5s-10.093-22.5-22.5-22.5c-12.407,0-22.5,10.093-22.5,22.5
				S375.093,182.5,387.5,182.5z M387.5,152.5c4.136,0,7.5,3.364,7.5,7.5s-3.364,7.5-7.5,7.5s-7.5-3.364-7.5-7.5
				S383.364,152.5,387.5,152.5z"/>
			<circle cx="387.5" cy="205" r="7.5"/>
			<path d="M72.5,182.5c12.407,0,22.5-10.093,22.5-22.5s-10.093-22.5-22.5-22.5S50,147.593,50,160S60.093,182.5,72.5,182.5z
				 M72.5,152.5c4.136,0,7.5,3.364,7.5,7.5s-3.364,7.5-7.5,7.5S65,164.136,65,160S68.364,152.5,72.5,152.5z"/>
			<circle cx="72.5" cy="205" r="7.5"/>
			<path d="M132.5,182.5c12.407,0,22.5-10.093,22.5-22.5s-10.093-22.5-22.5-22.5S110,147.593,110,160S120.093,182.5,132.5,182.5z
				 M132.5,152.5c4.136,0,7.5,3.364,7.5,7.5s-3.364,7.5-7.5,7.5s-7.5-3.364-7.5-7.5S128.364,152.5,132.5,152.5z"/>
		</g>
	</g>
</g>
</svg>